<svg xmlns="http://www.w3.org/2000/svg" width="400" height="400" fill="none" viewBox="0 0 400 400">
    <path fill="#57534E" d="M148 280c0-13.255 10.745-24 24-24h56c13.255 0 24 10.745 24 24v80c0 13.255-10.745 24-24 24h-56c-13.255 0-24-10.745-24-24v-80Z"/>
    <path fill="#44403C" d="M252 334.984c-17.411-4.32-34.836-7.262-50-7.262-16.326 0-35.272 3.41-54 8.278v-31.632C148 290.91 158.745 280 172 280h56c13.255 0 24 10.91 24 24.368v30.616Z"/>
    <path fill="#65A30D" fill-rule="evenodd" d="M43.707 342.492c-2.469.997-5.072 1.606-7.705 1.211-15.568-2.334-24.867-17.995-17.35-31.362L178.627 27.875c8.904-15.833 33.842-15.833 42.746 0l159.975 284.466c7.517 13.367-1.782 29.028-17.35 31.362-2.633.395-5.236-.214-7.705-1.211C337.968 335.095 255.275 303 200 303c-55.275 0-137.968 32.095-156.293 39.492Z" clip-rule="evenodd"/>
</svg>
