<svg width="16" height="16" viewBox="0 0 16 16" fill="none" xmlns="http://www.w3.org/2000/svg">
  <style>
    @media (prefers-color-scheme: dark) { path { fill: #fff; } }
  </style>
  <path fill="black"
    d="M7.96307 13.3395C12.1773 13.3395 15.5936 8.26164 15.5936 7.9815C15.5936 7.70136 12.1773 2.62354 7.96307 2.62354C3.74887 2.62354 0.332581 7.70136 0.332581 7.9815C0.332581 8.26164 3.74887 13.3395 7.96307 13.3395ZM5.71958 7.87683C5.98619 7.87683 6.19428 8.09545 6.24808 8.35658C6.29225 8.57092 6.37119 8.77574 6.49688 8.96655C6.68893 9.25809 6.96185 9.48526 7.28109 9.6194C7.60033 9.75353 7.95159 9.78862 8.29047 9.72025C8.62935 9.65187 8.94068 9.48309 9.18508 9.23518C9.42947 8.98728 9.59595 8.67138 9.6634 8.32742C9.73085 7.98346 9.69623 7.62694 9.56393 7.30296C9.43163 6.97898 9.20762 6.70213 8.92028 6.50738C8.80501 6.42925 8.68163 6.36575 8.55289 6.3177C8.29242 6.22049 8.05319 6.44649 8.05319 6.72451L8.05319 7.27259C8.05319 7.68589 7.5677 7.90809 7.25494 7.63794L5.55357 6.16841C5.25169 5.90767 5.37666 5.40644 5.7651 5.3157C6.48789 5.14686 7.22879 4.98843 7.94965 4.98843C8.53339 4.98843 9.104 5.16402 9.58931 5.49294C10.0746 5.82187 10.4528 6.28934 10.6761 6.83622C10.8994 7.38309 10.9579 7.98482 10.844 8.56535C10.7302 9.14588 10.4492 9.67918 10.0365 10.0978C9.6238 10.5164 9.09796 10.8015 8.52544 10.917C7.95292 11.0326 7.35949 10.9733 6.82021 10.7467C6.28093 10.5201 5.82006 10.1364 5.49584 9.64422C5.23669 9.2508 5.08823 8.81492 5.02896 8.35831C4.99464 8.09391 5.21471 7.87683 5.48131 7.87683H5.71958Z" />
</svg>